<?xml version="1.0" encoding="UTF-8" standalone="no"?>
<!-- Created with Inkscape (http://www.inkscape.org/) -->

<svg
   version="1.1"
   id="svg2"
   width="446.228"
   height="175.472"
   viewBox="0 0 446.228 175.472"
   sodipodi:docname="bus_top_view_1.svg"
   inkscape:version="1.2 (dc2aeda, 2022-05-15)"
   xmlns:inkscape="http://www.inkscape.org/namespaces/inkscape"
   xmlns:sodipodi="http://sodipodi.sourceforge.net/DTD/sodipodi-0.dtd"
   xmlns="http://www.w3.org/2000/svg"
   xmlns:svg="http://www.w3.org/2000/svg">
  <defs
     id="defs6">
    <clipPath
       clipPathUnits="userSpaceOnUse"
       id="clipPath712">
      <path
         d="m 6929.3,1514.49 -326.01,-19.06 c 0,0 -128.4,-1.81 -165.51,-59.09 h 653.02 c 0,0 395.24,45.04 427.33,65.1 l -588.83,13.05"
         id="path710" />
    </clipPath>
    <clipPath
       clipPathUnits="userSpaceOnUse"
       id="clipPath738">
      <path
         d="m 6929.3,752.691 -326.01,19.051 c 0,0 -128.4,1.821 -165.51,59.09 h 653.02 c 0,0 395.24,-45.031 427.33,-65.09 L 6929.3,752.691"
         id="path736" />
    </clipPath>
  </defs>
  <sodipodi:namedview
     id="namedview4"
     pagecolor="#505050"
     bordercolor="#eeeeee"
     borderopacity="1"
     inkscape:showpageshadow="0"
     inkscape:pageopacity="0"
     inkscape:pagecheckerboard="0"
     inkscape:deskcolor="#505050"
     showgrid="false"
     inkscape:zoom="0.53228914"
     inkscape:cx="-119.29606"
     inkscape:cy="5.6360345"
     inkscape:window-width="1920"
     inkscape:window-height="1011"
     inkscape:window-x="0"
     inkscape:window-y="649"
     inkscape:window-maximized="1"
     inkscape:current-layer="g12">
    <inkscape:page
       x="0"
       y="0"
       id="page8"
       width="446.228"
       height="175.472" />
  </sodipodi:namedview>
  <g
     id="g10"
     inkscape:groupmode="layer"
     inkscape:label="Page 1"
     transform="matrix(1.3333333,0,0,-1.3333333,-38.879103,945.32924)">
    <g
       id="g12"
       transform="matrix(0.1,0,0,0.1,-2.2636717,-46.783055)">
      <path
         d="m 1225.21,6400.27 c 0,19.02 -14.36,34.45 -32.08,34.45 H 913.496 c -17.734,0 -32.074,-15.43 -32.074,-34.45 v -15.26 c 0,-18.97 14.34,-34.42 32.074,-34.42 h 279.634 c 17.72,0 32.08,15.45 32.08,34.42 v 15.26"
         style="fill:#040505;fill-opacity:1;fill-rule:nonzero;stroke:none"
         id="path246" />
      <path
         d="M 1232.71,6374.99 H 873.883 c -13.18,0 -24.785,5.28 -32.317,13.34 h 423.474 c -7.51,-8.06 -19.12,-13.34 -32.33,-13.34"
         style="fill:#989695;fill-opacity:1;fill-rule:nonzero;stroke:none"
         id="path248" />
      <path
         d="m 3334.15,6400.27 c 0,19.02 -14.36,34.45 -32.08,34.45 h -279.63 c -17.73,0 -32.08,-15.43 -32.08,-34.45 v -15.26 c 0,-18.97 14.35,-34.42 32.08,-34.42 h 279.63 c 17.72,0 32.08,15.45 32.08,34.42 v 15.26"
         style="fill:#040505;fill-opacity:1;fill-rule:nonzero;stroke:none"
         id="path250" />
      <path
         d="m 3341.65,6374.99 h -358.83 c -13.18,0 -24.78,5.28 -32.31,13.34 h 423.47 c -7.51,-8.06 -19.12,-13.34 -32.33,-13.34"
         style="fill:#989695;fill-opacity:1;fill-rule:nonzero;stroke:none"
         id="path252" />
      <path
         d="m 1225.21,7397.29 c 0,-19.02 -14.36,-34.45 -32.08,-34.45 H 913.496 c -17.734,0 -32.074,15.43 -32.074,34.45 v 15.26 c 0,18.97 14.34,34.41 32.074,34.41 h 279.634 c 17.72,0 32.08,-15.44 32.08,-34.41 v -15.26"
         style="fill:#040505;fill-opacity:1;fill-rule:nonzero;stroke:none"
         id="path254" />
      <path
         d="M 1232.71,7422.58 H 873.883 c -13.18,0 -24.785,-5.29 -32.317,-13.35 h 423.474 c -7.51,8.06 -19.12,13.35 -32.33,13.35"
         style="fill:#989695;fill-opacity:1;fill-rule:nonzero;stroke:none"
         id="path256" />
      <path
         d="m 3334.15,7397.29 c 0,-19.02 -14.36,-34.45 -32.08,-34.45 h -279.63 c -17.73,0 -32.08,15.43 -32.08,34.45 v 15.26 c 0,18.97 14.35,34.41 32.08,34.41 h 279.63 c 17.72,0 32.08,-15.44 32.08,-34.41 v -15.26"
         style="fill:#040505;fill-opacity:1;fill-rule:nonzero;stroke:none"
         id="path258" />
      <path
         d="m 3341.65,7422.58 h -358.83 c -13.18,0 -24.78,-5.29 -32.31,-13.35 h 423.47 c -7.51,8.06 -19.12,13.35 -32.33,13.35"
         style="fill:#989695;fill-opacity:1;fill-rule:nonzero;stroke:none"
         id="path260" />
      <path
         d="m 3630.15,7222.52 -6.8,20.86 c -15.09,46.3 -43.63,86.91 -81.38,116.78 -51.28,40.58 -119.07,49.76 -184.44,49.76 H 3191.01 3112.32 413.578 c -54.871,0 -99.348,-44.48 -99.348,-99.35 v -410.79 -410.79 c 0,-54.88 44.477,-99.35 99.348,-99.35 h 2698.742 78.69 166.52 c 65.37,0 133.16,9.18 184.44,49.75 37.75,29.88 66.29,70.49 81.38,116.79 l 6.8,20.86 c 20.39,62.55 30.79,128.01 30.79,193.8 v 128.94 128.93 c 0,65.8 -10.4,131.26 -30.79,193.81"
         style="fill:#cbc8c6;fill-opacity:1;fill-rule:nonzero;stroke:none"
         id="path262" />
      <path
         d="m 410.613,6488.99 v 821.58 c 0,54.87 44.481,99.35 99.352,99.35 h -96.387 c -54.871,0 -99.348,-44.48 -99.348,-99.35 v -410.79 -410.79 c 0,-54.88 44.477,-99.35 99.348,-99.35 h 96.387 c -54.871,0 -99.352,44.47 -99.352,99.35"
         style="fill:#333232;fill-opacity:1;fill-rule:nonzero;stroke:none"
         id="path264" />
      <path
         d="m 432.367,7409.92 h -18.789 c -54.871,0 -99.348,-44.48 -99.348,-99.35 v -410.79 h 18.79 v 410.79 c 0,54.87 44.48,99.35 99.347,99.35"
         style="fill:#5c5a5a;fill-opacity:1;fill-rule:nonzero;stroke:none"
         id="path266" />
      <path
         d="m 1719.46,7398.26 c 0,5.49 4.46,9.94 9.94,9.94 h 317.01 c 5.48,0 9.93,-4.45 9.93,-9.94 v -12.93 c 0,-5.49 -4.45,-9.94 -9.93,-9.94 H 1729.4 c -5.48,0 -9.94,4.45 -9.94,9.94 v 12.93"
         style="fill:#546472;fill-opacity:1;fill-rule:nonzero;stroke:none"
         id="path268" />
      <path
         d="m 2128.37,7398.26 c 0,5.49 4.45,9.94 9.94,9.94 h 317 c 5.49,0 9.93,-4.45 9.93,-9.94 v -12.93 c 0,-5.49 -4.44,-9.94 -9.93,-9.94 h -317 c -5.49,0 -9.94,4.45 -9.94,9.94 v 12.93"
         style="fill:#546472;fill-opacity:1;fill-rule:nonzero;stroke:none"
         id="path270" />
      <path
         d="m 549.164,7398.26 c 0,5.49 14.703,9.94 32.832,9.94 H 1629.21 c 18.13,0 32.83,-4.45 32.83,-9.94 v -12.93 c 0,-5.49 -14.7,-9.94 -32.83,-9.94 H 581.996 c -18.129,0 -32.832,4.45 -32.832,9.94 v 12.93"
         style="fill:#546472;fill-opacity:1;fill-rule:nonzero;stroke:none"
         id="path272" />
      <path
         d="m 489.473,7208.88 c 0,-29.84 24.187,-54.03 54.023,-54.03 H 2888.87 c 29.84,0 54.03,24.19 54.03,54.03 0,29.83 -24.19,54.02 -54.03,54.02 H 543.496 c -29.836,0 -54.023,-24.19 -54.023,-54.02"
         style="fill:#989695;fill-opacity:1;fill-rule:nonzero;stroke:none"
         id="path274" />
      <path
         d="M 543.496,7249.83 H 2888.87 c 27.6,0 50.1,-20.77 53.37,-47.49 0.26,2.17 0.66,4.3 0.66,6.54 0,29.83 -24.19,54.02 -54.03,54.02 H 543.496 c -29.836,0 -54.023,-24.19 -54.023,-54.02 0,-2.24 0.394,-4.37 0.664,-6.54 3.258,26.72 25.761,47.49 53.359,47.49"
         style="fill:#adabaa;fill-opacity:1;fill-rule:nonzero;stroke:none"
         id="path276" />
      <path
         d="M 543.496,7043.93 H 2888.87 c 27.6,0 50.1,-20.77 53.37,-47.49 0.26,2.17 0.66,4.3 0.66,6.53 0,29.84 -24.19,54.03 -54.03,54.03 H 543.496 c -29.836,0 -54.023,-24.19 -54.023,-54.03 0,-2.23 0.394,-4.36 0.664,-6.53 3.258,26.72 25.761,47.49 53.359,47.49"
         style="fill:#adabaa;fill-opacity:1;fill-rule:nonzero;stroke:none"
         id="path278" />
      <path
         d="m 489.473,7002.97 c 0,-29.83 24.187,-54.02 54.023,-54.02 H 2888.87 c 29.84,0 54.03,24.19 54.03,54.02 0,29.84 -24.19,54.03 -54.03,54.03 H 543.496 c -29.836,0 -54.023,-24.19 -54.023,-54.03"
         style="fill:#989695;fill-opacity:1;fill-rule:nonzero;stroke:none"
         id="path280" />
      <path
         d="m 3110.31,7389.19 c -25.57,4.53 -131.18,-14.89 -132.69,-14.89 h -317.01 c -5.48,0 -9.93,4.45 -9.93,9.93 v 12.94 c 0,5.48 4.45,9.93 9.93,9.93 h 292.75 24.26 132.27 c 4.52,0 8.2,-3.67 8.2,-8.2 0,-4.68 -3.17,-10.52 -7.78,-9.71"
         style="fill:#546472;fill-opacity:1;fill-rule:nonzero;stroke:none"
         id="path282" />
      <path
         d="M 543.496,7043.93 H 2888.87 c 27.6,0 50.1,-20.77 53.37,-47.49 0.26,2.17 0.66,4.3 0.66,6.53 0,29.84 -24.19,54.03 -54.03,54.03 H 543.496 c -29.836,0 -54.023,-24.19 -54.023,-54.03 0,-2.23 0.394,-4.36 0.664,-6.53 3.258,26.72 25.761,47.49 53.359,47.49"
         style="fill:#adabaa;fill-opacity:1;fill-rule:nonzero;stroke:none"
         id="path284" />
      <path
         d="m 432.367,6389.64 h -18.789 c -54.871,0 -99.348,44.47 -99.348,99.35 v 410.79 h 18.79 v -410.79 c 0,-54.88 44.48,-99.35 99.347,-99.35"
         style="fill:#5c5a5a;fill-opacity:1;fill-rule:nonzero;stroke:none"
         id="path286" />
      <path
         d="m 3176.6,7397.17 c -12.97,0 -24.33,-0.98 -34.5,-2.74 l -0.02,0.1 c -23.72,-2.07 -81.6,-20.91 -104.14,-28.48 -4.59,-1.53 -4.91,-7.43 -2.18,-11.43 22.83,-33.54 47.54,-127.13 47.54,-127.13 h 0.01 c 18.22,-87.94 43.39,-202.93 48.1,-327.71 -4.71,-124.78 -29.88,-239.77 -48.1,-327.72 l -0.01,0.01 c 0,0 -24.71,-93.59 -47.54,-127.13 -2.73,-4 -2.41,-9.9 2.18,-11.44 22.54,-7.56 80.42,-26.4 104.14,-28.47 l 0.02,0.1 c 10.17,-1.76 21.53,-2.74 34.5,-2.74 207.74,0 264.35,221.29 266.4,497.39 -2.05,276.1 -58.66,497.39 -266.4,497.39"
         style="fill:#546472;fill-opacity:1;fill-rule:nonzero;stroke:none"
         id="path288" />
      <path
         d="m 1719.46,6401.3 c 0,-5.49 4.46,-9.94 9.94,-9.94 h 317.01 c 5.48,0 9.93,4.45 9.93,9.94 v 12.93 c 0,5.48 -4.45,9.93 -9.93,9.93 H 1729.4 c -5.48,0 -9.94,-4.45 -9.94,-9.93 v -12.93"
         style="fill:#546472;fill-opacity:1;fill-rule:nonzero;stroke:none"
         id="path290" />
      <path
         d="m 2128.37,6401.3 c 0,-5.49 4.45,-9.94 9.94,-9.94 h 317 c 5.49,0 9.93,4.45 9.93,9.94 v 12.93 c 0,5.48 -4.44,9.93 -9.93,9.93 h -317 c -5.49,0 -9.94,-4.45 -9.94,-9.93 v -12.93"
         style="fill:#546472;fill-opacity:1;fill-rule:nonzero;stroke:none"
         id="path292" />
      <path
         d="m 549.164,6401.3 c 0,-5.49 14.703,-9.94 32.832,-9.94 H 1629.21 c 18.13,0 32.83,4.45 32.83,9.94 v 12.93 c 0,5.48 -14.7,9.93 -32.83,9.93 H 581.996 c -18.129,0 -32.832,-4.45 -32.832,-9.93 v -12.93"
         style="fill:#546472;fill-opacity:1;fill-rule:nonzero;stroke:none"
         id="path294" />
      <path
         d="m 489.473,6590.68 c 0,29.84 24.187,54.03 54.023,54.03 H 2888.87 c 29.84,0 54.03,-24.19 54.03,-54.03 0,-29.83 -24.19,-54.02 -54.03,-54.02 H 543.496 c -29.836,0 -54.023,24.19 -54.023,54.02"
         style="fill:#989695;fill-opacity:1;fill-rule:nonzero;stroke:none"
         id="path296" />
      <path
         d="M 543.496,6549.73 H 2888.87 c 27.6,0 50.1,20.77 53.37,47.49 0.26,-2.17 0.66,-4.3 0.66,-6.54 0,-29.83 -24.19,-54.02 -54.03,-54.02 H 543.496 c -29.836,0 -54.023,24.19 -54.023,54.02 0,2.24 0.394,4.37 0.664,6.54 3.258,-26.72 25.761,-47.49 53.359,-47.49"
         style="fill:#adabaa;fill-opacity:1;fill-rule:nonzero;stroke:none"
         id="path298" />
      <path
         d="M 543.496,6755.63 H 2888.87 c 27.6,0 50.1,20.77 53.37,47.49 0.26,-2.17 0.66,-4.3 0.66,-6.54 0,-29.83 -24.19,-54.02 -54.03,-54.02 H 543.496 c -29.836,0 -54.023,24.19 -54.023,54.02 0,2.24 0.394,4.37 0.664,6.54 3.258,-26.72 25.761,-47.49 53.359,-47.49"
         style="fill:#adabaa;fill-opacity:1;fill-rule:nonzero;stroke:none"
         id="path300" />
      <path
         d="m 489.473,6796.58 c 0,29.84 24.187,54.02 54.023,54.02 H 2888.87 c 29.84,0 54.03,-24.18 54.03,-54.02 0,-29.83 -24.19,-54.02 -54.03,-54.02 H 543.496 c -29.836,0 -54.023,24.19 -54.023,54.02"
         style="fill:#989695;fill-opacity:1;fill-rule:nonzero;stroke:none"
         id="path302" />
      <path
         d="m 3110.31,6410.36 c -25.57,-4.53 -131.18,14.9 -132.69,14.9 h -317.01 c -5.48,0 -9.93,-4.45 -9.93,-9.93 v -12.94 c 0,-5.49 4.45,-9.94 9.93,-9.94 h 292.75 24.26 132.27 c 4.52,0 8.2,3.68 8.2,8.2 0,4.69 -3.17,10.53 -7.78,9.71"
         style="fill:#546472;fill-opacity:1;fill-rule:nonzero;stroke:none"
         id="path304" />
      <path
         d="m 2995.2,6441.3 c 2.12,7.21 8.72,11.89 15.88,11.89 1.54,0 3.11,-0.22 4.67,-0.67 l 175.26,-51.38 c 6.87,-2.03 -0.42,-4.75 0,-11.5 h -78.69 l -105.9,31.1 c -8.78,2.58 -13.8,11.78 -11.22,20.56"
         style="fill:#cbc8c6;fill-opacity:1;fill-rule:nonzero;stroke:none"
         id="path306" />
      <path
         d="m 693.52,6449.89 c 0,7.32 5.937,13.26 13.261,13.26 H 2987.72 c 11.21,0 21.94,-4.85 29.35,-13.26 4.37,-4.95 0.62,-13.26 -5.99,-13.26 H 706.781 c -7.324,0 -13.261,5.94 -13.261,13.26"
         style="fill:#989695;fill-opacity:1;fill-rule:nonzero;stroke:none"
         id="path308" />
      <path
         d="M 706.781,6442.55 H 3011.08 c 3.51,0 6.17,2.36 7.27,5.3 2.07,-4.9 -1.51,-11.22 -7.27,-11.22 H 706.781 c -7.324,0 -13.261,5.94 -13.261,13.26 0,1.05 0.367,1.98 0.601,2.96 1.371,-5.85 6.387,-10.3 12.66,-10.3"
         style="fill:#adabaa;fill-opacity:1;fill-rule:nonzero;stroke:none"
         id="path310" />
      <path
         d="m 3642.23,7109.73 c -7.39,51.6 -55.01,86.07 -107.14,86.07 h -16.9 c -44.3,0 -74.58,-42.21 -68.31,-86.07 3.68,-25.7 5.55,-51.67 5.55,-77.71 l -0.49,-132.24 0.49,-132.24 c 0,-26.04 -1.87,-52.01 -5.55,-77.72 -6.27,-43.85 24.01,-86.07 68.31,-86.07 h 16.9 c 52.13,0 99.75,34.48 107.14,86.07 3.67,25.71 5.54,51.68 5.54,77.72 v 132.24 132.24 c 0,26.04 -1.87,52.01 -5.54,77.71"
         style="fill:#e0dedd;fill-opacity:1;fill-rule:nonzero;stroke:none"
         id="path312" />
      <path
         d="m 3526.59,6612.15 c -44.3,0 -74.58,42.22 -68.31,86.07 3.68,25.7 5.54,51.68 5.54,77.71 l -0.46,123.85 0.46,123.85 c 0,26.03 -1.86,52 -5.54,77.71 -6.27,43.85 24.01,86.07 68.31,86.07 h 16.9 c 28.61,0 55.82,-10.43 75.8,-28.33 -20.33,23.02 -51.35,36.72 -84.2,36.72 h -16.9 c -44.3,0 -74.58,-42.21 -68.31,-86.07 3.68,-25.7 5.55,-51.67 5.55,-77.71 l -0.49,-132.24 0.49,-132.24 c 0,-26.04 -1.87,-52.01 -5.55,-77.72 -6.27,-43.85 24.01,-86.07 68.31,-86.07 h 16.9 c 32.85,0 63.87,13.7 84.2,36.73 -19.98,-17.9 -47.19,-28.33 -75.8,-28.33 h -16.9"
         style="fill:#adabaa;fill-opacity:1;fill-rule:nonzero;stroke:none"
         id="path314" />
      <path
         d="m 3131.41,6304.74 c 0,6.26 -5.12,11.38 -11.37,11.38 -6.45,0 -11.95,-4.92 -11.95,-11.38 v -10.49 c 0,-6.25 5.07,-11.33 11.33,-11.33 6.47,0 11.99,4.91 11.99,11.33 v 10.49"
         style="fill:#2d2d2d;fill-opacity:1;fill-rule:nonzero;stroke:none"
         id="path316" />
      <path
         d="m 3108.09,6390.73 c 0,6.44 5.21,11.66 11.66,11.66 6.43,0 11.66,-5.22 11.66,-11.66 v -79.54 c 0,-6.44 -5.23,-11.66 -11.66,-11.66 -6.45,0 -11.66,5.22 -11.66,11.66 v 79.54"
         style="fill:#2d2d2d;fill-opacity:1;fill-rule:nonzero;stroke:none"
         id="path318" />
      <path
         d="m 3070.57,6351.91 v -102.25 h 18.75 l 18.77,20.04 v 62.16 l -18.77,20.05 h -18.75"
         style="fill:#cbc8c6;fill-opacity:1;fill-rule:nonzero;stroke:none"
         id="path320" />
      <path
         d="m 3094.55,6348.46 c 0,6.25 -5.1,11.33 -11.36,11.33 h -20.79 c -6.32,0 -11.38,-5.08 -11.38,-11.33 v -95.32 c 0,-6.3 5.06,-11.38 11.38,-11.38 h 20.79 c 6.26,0 11.36,5.08 11.36,11.38 v 95.32"
         style="fill:#989695;fill-opacity:1;fill-rule:nonzero;stroke:none"
         id="path322" />
      <path
         d="m 333.02,6991.46 c -10.379,0 -18.79,-8.42 -18.79,-18.79 v -43.88 -10.22 -18.79 -18.79 -10.22 -43.89 c 0,-10.37 8.411,-18.78 18.79,-18.78 10.371,0 18.789,8.41 18.789,18.78 v 43.89 10.22 18.79 18.79 10.22 43.88 c 0,10.37 -8.418,18.79 -18.789,18.79"
         style="fill:#b0151b;fill-opacity:1;fill-rule:nonzero;stroke:none"
         id="path324" />
      <path
         d="m 323.723,6826.88 v 145.79 c 0,8.72 5.972,15.99 14.043,18.11 -1.528,0.39 -3.098,0.68 -4.746,0.68 -10.379,0 -18.79,-8.42 -18.79,-18.79 v -43.88 -10.22 -18.79 -18.79 -10.22 -43.89 c 0,-10.37 8.411,-18.78 18.79,-18.78 1.648,0 3.218,0.28 4.746,0.68 -8.071,2.12 -14.043,9.38 -14.043,18.1"
         style="fill:#ef4950;fill-opacity:1;fill-rule:nonzero;stroke:none"
         id="path326" />
      <path
         d="M 543.496,6755.63 H 2888.87 c 27.6,0 50.1,20.77 53.37,47.49 0.26,-2.17 0.66,-4.3 0.66,-6.54 0,-29.83 -24.19,-54.02 -54.03,-54.02 H 543.496 c -29.836,0 -54.023,24.19 -54.023,54.02 0,2.24 0.394,4.37 0.664,6.54 3.258,-26.72 25.761,-47.49 53.359,-47.49"
         style="fill:#adabaa;fill-opacity:1;fill-rule:nonzero;stroke:none"
         id="path328" />
      <path
         d="m 2995.2,7358.26 c 2.12,-7.22 8.72,-11.89 15.88,-11.89 1.54,0 3.11,0.22 4.67,0.67 l 175.26,51.38 c 6.87,2.02 -0.42,4.74 0,11.5 h -78.69 l -105.9,-31.1 c -8.78,-2.59 -13.8,-11.79 -11.22,-20.56"
         style="fill:#cbc8c6;fill-opacity:1;fill-rule:nonzero;stroke:none"
         id="path330" />
      <path
         d="m 3131.41,7494.82 c 0,-6.27 -5.12,-11.38 -11.37,-11.38 -6.45,0 -11.95,4.92 -11.95,11.38 v 10.49 c 0,6.25 5.07,11.33 11.33,11.33 6.47,0 11.99,-4.91 11.99,-11.33 v -10.49"
         style="fill:#2d2d2d;fill-opacity:1;fill-rule:nonzero;stroke:none"
         id="path332" />
      <path
         d="m 3108.09,7408.83 c 0,-6.44 5.21,-11.66 11.66,-11.66 6.43,0 11.66,5.22 11.66,11.66 v 79.53 c 0,6.44 -5.23,11.66 -11.66,11.66 -6.45,0 -11.66,-5.22 -11.66,-11.66 v -79.53"
         style="fill:#2d2d2d;fill-opacity:1;fill-rule:nonzero;stroke:none"
         id="path334" />
      <path
         d="m 3070.57,7447.65 v 102.25 h 18.75 l 18.77,-20.04 v -62.16 l -18.77,-20.05 h -18.75"
         style="fill:#cbc8c6;fill-opacity:1;fill-rule:nonzero;stroke:none"
         id="path336" />
      <path
         d="m 3094.55,7451.1 c 0,-6.25 -5.1,-11.33 -11.36,-11.33 h -20.79 c -6.32,0 -11.38,5.08 -11.38,11.33 v 95.32 c 0,6.29 5.06,11.38 11.38,11.38 h 20.79 c 6.26,0 11.36,-5.09 11.36,-11.38 v -95.32"
         style="fill:#989695;fill-opacity:1;fill-rule:nonzero;stroke:none"
         id="path338" />
      <path
         d="m 693.52,7349.67 c 0,-7.32 5.937,-13.27 13.261,-13.27 H 2987.72 c 11.21,0 21.94,4.85 29.35,13.27 4.37,4.95 0.62,13.26 -5.99,13.26 H 706.781 c -7.324,0 -13.261,-5.94 -13.261,-13.26"
         style="fill:#989695;fill-opacity:1;fill-rule:nonzero;stroke:none"
         id="path340" />
      <path
         d="M 706.781,7357.01 H 3011.08 c 3.51,0 6.17,-2.36 7.27,-5.3 2.07,4.9 -1.51,11.22 -7.27,11.22 H 706.781 c -7.324,0 -13.261,-5.94 -13.261,-13.26 0,-1.05 0.367,-1.99 0.601,-2.96 1.371,5.85 6.387,10.3 12.66,10.3"
         style="fill:#adabaa;fill-opacity:1;fill-rule:nonzero;stroke:none"
         id="path342" />
      <path
         d="m 3613.06,7230.4 c 2.26,-5.85 -4.57,-10.6 -10.11,-7.66 -32.64,17.29 -108.51,65.21 -147.57,153.39 -2.8,6.31 3.45,12.83 9.87,10.33 33,-12.88 108.03,-52.5 147.81,-156.06"
         style="fill:#bfd8e3;fill-opacity:1;fill-rule:nonzero;stroke:none"
         id="path344" />
      <path
         d="m 3613.06,6567.16 c 2.26,5.85 -4.57,10.6 -10.11,7.66 -32.64,-17.29 -108.51,-65.21 -147.57,-153.39 -2.8,-6.3 3.45,-12.83 9.87,-10.33 33,12.88 108.03,52.5 147.81,156.06"
         style="fill:#bfd8e3;fill-opacity:1;fill-rule:nonzero;stroke:none"
         id="path346" />
      <path
         d="m 3428.38,6754.71 -53.63,-139.96 8.99,-4.75 54.8,142.8 -10.16,1.91"
         style="fill:#2e2f2e;fill-opacity:1;fill-rule:nonzero;stroke:none"
         id="path348" />
      <path
         d="m 3363.57,6492.39 c -2.66,0.77 -4.44,3.38 -4.1,6.21 l 35.75,293.6 c 0.39,3.15 3.25,5.39 6.39,5.01 3.21,-0.34 5.39,-3.26 5.02,-6.39 l -35.75,-293.61 c -0.39,-3.14 -3.25,-5.39 -6.4,-5 l -0.91,0.18"
         style="fill:#2e2f2e;fill-opacity:1;fill-rule:nonzero;stroke:none"
         id="path350" />
      <path
         d="m 3366.66,6496.52 35.75,293.61 c 0.25,2.03 1.58,3.6 3.31,4.41 -0.87,1.42 -2.29,2.47 -4.11,2.67 -3.14,0.38 -6,-1.86 -6.39,-5.01 l -35.75,-293.6 c -0.34,-2.83 1.44,-5.44 4.1,-6.21 l 0.91,-0.18 c 1.09,-0.13 2.11,0.14 3.04,0.56 -0.68,1.08 -1.03,2.38 -0.86,3.75"
         style="fill:#8b8c8b;fill-opacity:1;fill-rule:nonzero;stroke:none"
         id="path352" />
      <path
         d="m 3415.24,7141.41 -14.88,-161.66 9.02,-4.56 15.6,166.23 -9.74,-0.01"
         style="fill:#2e2f2e;fill-opacity:1;fill-rule:nonzero;stroke:none"
         id="path354" />
      <path
         d="m 3408.85,6857.51 c -2.76,0.3 -4.96,2.57 -5.11,5.41 l -15.43,295.37 c -0.16,3.17 2.27,5.87 5.43,6.03 3.22,0.22 5.87,-2.28 6.04,-5.43 l 15.44,-295.37 c 0.16,-3.16 -2.27,-5.88 -5.44,-6.04 l -0.93,0.03"
         style="fill:#2e2f2e;fill-opacity:1;fill-rule:nonzero;stroke:none"
         id="path356" />
      <path
         d="m 3411.18,6862.11 -15.43,295.37 c -0.1,2.05 0.94,3.83 2.5,4.93 -1.11,1.24 -2.68,2.04 -4.51,1.91 -3.16,-0.16 -5.59,-2.86 -5.43,-6.03 l 15.43,-295.37 c 0.15,-2.84 2.35,-5.11 5.11,-5.41 l 0.93,-0.03 c 1.09,0.07 2.04,0.51 2.9,1.09 -0.86,0.94 -1.43,2.17 -1.5,3.54"
         style="fill:#8b8c8b;fill-opacity:1;fill-rule:nonzero;stroke:none"
         id="path358" />
    </g>
  </g>
</svg>
