<?xml version="1.0" encoding="UTF-8" standalone="no"?>
<!DOCTYPE svg PUBLIC "-//W3C//DTD SVG 1.1//EN" "http://www.w3.org/Graphics/SVG/1.1/DTD/svg11.dtd">
<!-- Created with Vectornator (http://vectornator.io/) -->
<svg height="100%" stroke-miterlimit="10" style="fill-rule:nonzero;clip-rule:evenodd;stroke-linecap:round;stroke-linejoin:round;" version="1.1" viewBox="0 0 512 512" width="100%" xml:space="preserve" xmlns="http://www.w3.org/2000/svg" xmlns:vectornator="http://vectornator.io" xmlns:xlink="http://www.w3.org/1999/xlink">
<defs/>
<g id="Layer-1" vectornator:layerName="Layer 1">
<path d="M166.893 146.752C162.533 146.932 153.814 147.292 149.455 147.472C149.086 147.487 148.743 147.5 148.376 147.543C145.635 147.867 140.152 148.514 137.41 148.838C136.68 148.924 135.926 149.074 135.217 149.269C132.089 150.132 125.833 151.858 122.705 152.721C121.933 152.934 121.202 153.211 120.476 153.548C117.608 154.878 111.874 157.539 109.006 158.869C108.823 158.954 108.647 159.064 108.467 159.157C100.243 163.398 92.9699 168.378 86.7864 174.042C78.8343 181.325 72.627 189.829 68.7373 199.354C67.4327 202.548 66.1056 207.426 65.6452 208.954C63.5273 215.983 63.5598 224.631 63.5598 228.549C63.5598 228.573 63.5597 228.596 63.5598 228.621C63.5868 234.014 63.6407 244.8 63.6677 250.193C63.669 250.465 63.6511 250.749 63.6677 251.02C63.9913 256.315 64.6385 266.903 64.962 272.197C65.1608 275.622 65.5563 282.364 65.753 285.752C65.7593 285.861 65.7803 285.968 65.789 286.076C66.0047 288.754 66.4362 294.112 66.6519 296.79C66.6206 296.402 66.616 296.029 66.6159 295.64C66.616 298.523 66.9192 302.288 67.5867 306.75C67.9164 308.953 68.3207 311.233 68.953 313.581C69.5531 315.809 69.9205 318.609 73.4832 322.677C76.2589 325.847 79.8852 328.819 84.737 331.055C89.2875 333.152 94.3564 334.614 98.8311 335.369C107.201 336.782 112.574 336.874 118.175 336.879C123.727 353.796 140.399 365.248 158.767 365.248C177.262 365.248 193.973 353.681 199.432 336.628C220.914 336.589 250.316 336.55 267.278 336.52C275.125 336.501 287.574 336.475 298.666 336.448C304.071 353.604 320.877 365.248 339.402 365.248C358.027 365.248 374.839 353.519 380.175 336.268C385.275 336.253 390.412 336.242 393.837 336.232C416.012 336.232 437.657 320.642 437.702 296.862C437.702 296.843 437.702 296.809 437.702 296.79C437.801 271.137 437.998 219.938 438.097 194.32C438.097 194.302 438.097 194.267 438.097 194.248C438.097 188.257 436.66 182.107 433.603 176.882C430.607 171.763 426.808 168.102 422.852 164.658C416.88 159.457 410.682 157.44 405.666 155.489C401.677 153.938 400.208 153.895 399.59 153.692C398.772 153.423 397.962 153.237 397.109 153.116C395.581 152.901 392.525 152.469 390.997 152.253C390.44 152.175 389.869 152.123 389.307 152.11C333.946 150.77 223.224 148.092 167.864 146.752L166.893 146.752Z" fill="none" fill-rule="evenodd" opacity="1" stroke="#034aa5" stroke-linecap="round" stroke-linejoin="round" stroke-width="4.25243"/>
<path d="M167.504 161.278L150.066 161.997L139.1 163.292L126.588 166.743L115.118 172.064C107.922 175.776 101.735 180.055 96.6019 184.756C90.0118 190.792 85.1702 197.543 82.1842 204.855C81.5952 206.297 79.9726 211.789 79.5595 213.16C78.6539 216.166 78.0854 226.08 78.0854 228.549L78.1933 250.121L79.4876 271.299L80.2786 284.925L81.1415 295.64C81.1415 298.724 82.2702 310.667 84.4134 313.114C85.8589 314.764 88.1207 316.619 90.8133 317.86C93.074 318.902 98.9422 320.636 101.24 321.024C110.896 322.654 114.428 322.39 122.489 322.39L130.147 322.246L130.902 322.246C130.809 323.105 130.615 323.953 130.615 324.835C130.615 339.133 143.221 350.722 158.767 350.722C174.314 350.722 186.919 339.133 186.919 324.835C186.919 323.917 186.733 323.031 186.632 322.138L267.242 321.994L311.573 321.886C311.453 322.861 311.25 323.831 311.25 324.835C311.25 339.133 323.856 350.722 339.402 350.722C354.949 350.722 367.555 339.133 367.555 324.835C367.555 323.795 367.361 322.787 367.231 321.779L369.316 321.779L393.837 321.707C410.044 321.707 423.176 310.541 423.176 296.79L423.572 194.248C423.572 186.242 420.332 181.757 413.289 175.624C410.116 172.861 405.491 171.032 400.381 169.044C398.362 168.259 397.323 168.243 395.06 167.498L388.947 166.635L167.504 161.278Z" fill="none" fill-rule="evenodd" opacity="1" stroke="#034aa5" stroke-linecap="round" stroke-linejoin="round" stroke-width="11.5258"/>
</g>
<g id="Layer-2" vectornator:layerName="Layer 2">
<path d="M237.342 270.321L224.213 270.321L215.058 228.549L215.508 265.28L215.565 270.321L203.23 270.321L203.23 217.114L224.213 217.114C224.213 217.114 230.129 247.078 230.798 252.403C231.316 248.511 237.342 217.114 237.342 217.114L258.31 217.114L258.31 270.321L245.99 270.321L246.466 228.549L237.342 270.321Z" fill="#000000" fill-rule="evenodd" opacity="1" stroke="none"/>
<path d="M327.399 217.114L340.566 217.114L340.566 255.234C340.566 258.076 340.851 259.857 341.399 260.579C341.944 261.297 342.942 261.637 344.423 261.637C345.88 261.637 346.89 261.297 347.438 260.595C347.982 259.898 348.266 258.128 348.266 255.309L348.266 254.697L348.266 217.114L361.426 217.114L361.426 259.1C361.426 263.615 360.146 266.769 357.606 268.654C355.066 270.476 350.657 271.385 344.423 271.385C338.174 271.385 333.79 270.476 331.229 268.654C328.678 266.769 327.399 263.615 327.399 259.1L327.399 217.114Z" fill="#000000" fill-rule="evenodd" opacity="1" stroke="none"/>
<path d="M299.411 270.321L286.279 270.321L277.118 228.549L277.625 270.321L265.33 270.321L265.33 217.114L286.279 217.114C286.279 217.114 292.211 247.078 292.885 252.403C293.388 248.511 299.411 217.114 299.411 217.114L320.406 217.114L320.406 270.321L308.087 270.321L308.532 228.549L299.411 270.321Z" fill="#000000" fill-rule="evenodd" opacity="1" stroke="none"/>
<path d="M161.007 243.338C160.976 239.125 164.454 235.717 168.734 235.687C173.035 235.661 176.542 239.058 176.558 243.26C176.581 247.472 173.113 250.885 168.812 250.904C164.526 250.938 161.026 247.538 161.007 243.338" fill="#f01616" fill-rule="evenodd" opacity="1" stroke="none"/>
<path d="M168.483 254.47C161.261 254.305 157.889 249.365 157.411 243.319L157.363 233.805L157.326 233.805L157.335 233.705C157.335 233.07 156.986 232.49 156.477 232.204L156.397 216.453L154.949 216.453L155.033 232.181C154.481 232.462 154.11 233.07 154.11 233.731L154.131 233.814L154.11 233.814L154.11 233.748C154.11 233.07 153.748 232.475 153.176 232.195L153.083 216.47L151.671 216.485L151.745 232.264C151.247 232.562 150.926 233.126 150.926 233.769L150.926 233.854L150.906 233.832L150.906 233.769C150.906 233.099 150.535 232.534 150.009 232.238L149.923 216.485L148.502 216.496L148.577 232.264C148.121 232.534 147.778 233.048 147.734 233.64C147.684 233.048 147.326 232.538 146.829 232.264L146.762 216.507L145.318 216.521L145.387 232.285C144.888 232.584 144.515 233.145 144.515 233.805L144.538 233.879L144.506 233.879L144.515 233.798C144.515 233.126 144.147 232.538 143.619 232.253L143.529 216.521L142.097 216.539L142.193 232.274C141.669 232.57 141.302 233.145 141.302 233.798L141.31 233.907L141.342 244.045C141.435 258.758 153.593 270.678 168.597 270.876L168.483 254.47Z" fill="#034aa5" fill-rule="evenodd" opacity="1" stroke="none"/>
<path d="M196.41 243.259C196.328 228.366 184.006 216.338 168.754 216.436L168.273 216.423L168.353 232.101C174.647 232.066 180.164 236.546 180.164 243.206L180.192 251.971L180.203 252.004C180.203 252.667 180.59 253.259 181.11 253.544L181.062 253.544L181.163 270.572L182.622 270.572L182.542 253.544C183.057 253.274 183.461 252.667 183.45 252.004L183.438 251.949L183.45 251.949C183.461 252.667 183.837 253.274 184.387 253.544L184.496 270.555L185.963 270.545L185.841 253.531L185.773 253.521C186.312 253.227 186.681 252.635 186.681 251.949L186.681 251.947L186.681 251.949C186.681 252.635 187.068 253.227 187.609 253.507L187.587 253.507L187.678 270.545L189.14 270.545L189.034 253.494L189.017 253.504C189.505 253.235 189.863 252.713 189.916 252.111C189.986 252.713 190.344 253.235 190.852 253.487L190.797 253.494L190.882 270.525L192.374 270.525L192.27 253.487L192.213 253.487C192.759 253.203 193.136 252.598 193.136 251.902L193.123 251.882L193.147 251.882L193.136 251.947C193.147 252.618 193.517 253.203 194.055 253.487L194.155 270.517L195.601 270.517L195.516 253.447C196.029 253.176 196.391 252.592 196.373 251.922L196.373 251.852L196.457 251.852L196.41 243.259Z" fill="#034aa5" fill-rule="evenodd" opacity="1" stroke="none"/>
<path d="M237.342 270.321L224.213 270.321L215.058 228.549L215.508 265.28L215.565 270.321L203.23 270.321L203.23 217.114L224.213 217.114C224.213 217.114 230.129 247.078 230.798 252.403C231.316 248.511 237.342 217.114 237.342 217.114L258.31 217.114L258.31 270.321L245.99 270.321L246.466 228.549L237.342 270.321Z" fill="#034aa5" fill-rule="evenodd" opacity="1" stroke="none"/>
<path d="M327.399 217.114L340.566 217.114L340.566 255.234C340.566 258.076 340.851 259.857 341.399 260.579C341.944 261.297 342.942 261.637 344.423 261.637C345.88 261.637 346.89 261.297 347.438 260.595C347.982 259.898 348.266 258.128 348.266 255.309L348.266 254.697L348.266 217.114L361.426 217.114L361.426 259.1C361.426 263.615 360.146 266.769 357.606 268.654C355.066 270.476 350.657 271.385 344.423 271.385C338.174 271.385 333.79 270.476 331.229 268.654C328.678 266.769 327.399 263.615 327.399 259.1L327.399 217.114Z" fill="#034aa5" fill-rule="evenodd" opacity="1" stroke="none"/>
<path d="M299.411 270.321L286.279 270.321L277.118 228.549L277.625 270.321L265.33 270.321L265.33 217.114L286.279 217.114C286.279 217.114 292.211 247.078 292.885 252.403C293.388 248.511 299.411 217.114 299.411 217.114L320.406 217.114L320.406 270.321L308.087 270.321L308.532 228.549L299.411 270.321Z" fill="#034aa5" fill-rule="evenodd" opacity="1" stroke="none"/>
<path d="M161.007 243.338C160.976 239.125 164.454 235.717 168.734 235.687C173.035 235.661 176.542 239.058 176.558 243.26C176.581 247.472 173.113 250.885 168.812 250.904C164.526 250.938 161.026 247.538 161.007 243.338" fill="#f01616" fill-rule="evenodd" opacity="1" stroke="none"/>
<path d="M168.483 254.47C161.261 254.305 157.889 249.365 157.411 243.319L157.363 233.805L157.326 233.805L157.335 233.705C157.335 233.07 156.986 232.49 156.477 232.204L156.397 216.453L154.949 216.453L155.033 232.181C154.481 232.462 154.11 233.07 154.11 233.731L154.131 233.814L154.11 233.814L154.11 233.748C154.11 233.07 153.748 232.475 153.176 232.195L153.083 216.47L151.671 216.485L151.745 232.264C151.247 232.562 150.926 233.126 150.926 233.769L150.926 233.854L150.906 233.832L150.906 233.769C150.906 233.099 150.535 232.534 150.009 232.238L149.923 216.485L148.502 216.496L148.577 232.264C148.121 232.534 147.778 233.048 147.734 233.64C147.684 233.048 147.326 232.538 146.829 232.264L146.762 216.507L145.318 216.521L145.387 232.285C144.888 232.584 144.515 233.145 144.515 233.805L144.538 233.879L144.506 233.879L144.515 233.798C144.515 233.126 144.147 232.538 143.619 232.253L143.529 216.521L142.097 216.539L142.193 232.274C141.669 232.57 141.302 233.145 141.302 233.798L141.31 233.907L141.342 244.045C141.435 258.758 153.593 270.678 168.597 270.876L168.483 254.47Z" fill="#034aa5" fill-rule="evenodd" opacity="1" stroke="none"/>
<path d="M196.41 243.259C196.328 228.366 184.006 216.338 168.754 216.436L168.273 216.423L168.353 232.101C174.647 232.066 180.164 236.546 180.164 243.206L180.192 251.971L180.203 252.004C180.203 252.667 180.59 253.259 181.11 253.544L181.062 253.544L181.163 270.572L182.622 270.572L182.542 253.544C183.057 253.274 183.461 252.667 183.45 252.004L183.438 251.949L183.45 251.949C183.461 252.667 183.837 253.274 184.387 253.544L184.496 270.555L185.963 270.545L185.841 253.531L185.773 253.521C186.312 253.227 186.681 252.635 186.681 251.949L186.681 251.947L186.681 251.949C186.681 252.635 187.068 253.227 187.609 253.507L187.587 253.507L187.678 270.545L189.14 270.545L189.034 253.494L189.017 253.504C189.505 253.235 189.863 252.713 189.916 252.111C189.986 252.713 190.344 253.235 190.852 253.487L190.797 253.494L190.882 270.525L192.374 270.525L192.27 253.487L192.213 253.487C192.759 253.203 193.136 252.598 193.136 251.902L193.123 251.882L193.147 251.882L193.136 251.947C193.147 252.618 193.517 253.203 194.055 253.487L194.155 270.517L195.601 270.517L195.516 253.447C196.029 253.176 196.391 252.592 196.373 251.922L196.373 251.852L196.457 251.852L196.41 243.259Z" fill="#034aa5" fill-rule="evenodd" opacity="1" stroke="none"/>
</g>
</svg>
